<svg width="607" height="116" viewBox="0 0 607 116" fill="none" xmlns="http://www.w3.org/2000/svg">
<path d="M107.441 58.0009C107.483 51.5538 107.84 45.1663 108.543 38.8504C109.288 32.1111 109.663 26.8628 109.663 23.1114C109.663 17.3323 108.418 12.7459 105.934 9.35242C103.444 5.9589 99.906 3.54944 95.3074 2.13001C90.7089 0.710573 85.181 0.000856132 78.718 0.000856132C78.5691 0.000856132 71.7188 0.000856145 66.2268 1.90338C62.3549 3.24528 58.5128 3.74029 54.8256 3.79397C51.1384 3.74029 47.344 3.10214 43.4245 1.90338C36.8721 -0.100532 31.0881 0.000856132 30.9392 0.000856132C24.4821 0.000856132 18.9543 0.710573 14.3557 2.13001C9.7571 3.54944 6.21881 5.9589 3.7289 9.35242C1.24495 12.7519 0 17.3323 0 23.1114C0 26.8628 0.375273 32.1111 1.11986 38.8504C1.8168 45.1663 2.1742 51.5538 2.22185 58.0009C2.18016 64.448 1.82275 70.8354 1.11986 77.1513C0.375273 83.8906 0 89.139 0 92.8903C0 98.6694 1.24495 103.256 3.7289 106.649C6.21285 110.043 9.7571 112.452 14.3557 113.872C18.9543 115.291 24.4881 116.001 30.9451 116.001C31.0941 116.001 36.878 116.102 43.4364 114.098C47.3559 112.906 51.1503 112.261 54.8375 112.208C58.5247 112.261 62.3668 112.756 66.2387 114.098C71.7308 116.001 78.581 116.001 78.7299 116.001C85.187 116.001 90.7208 115.291 95.3194 113.872C99.9179 112.452 103.456 110.043 105.946 106.649C108.43 103.25 109.675 98.6694 109.675 92.8903C109.675 89.139 109.3 83.8906 108.555 77.1513C107.858 70.8354 107.501 64.448 107.453 58.0009H107.441ZM85.4312 109.232C84.3113 110.8 82.3218 111.587 79.4685 111.587C77.479 111.587 75.8826 110.776 74.2505 109.762C58.6379 100.095 52.8122 100.095 35.4186 109.762C33.7388 110.699 32.1901 111.587 30.2005 111.587C27.3413 111.587 25.3518 110.8 24.2379 109.232C23.118 107.657 22.5581 105.099 22.5581 101.556C22.5581 98.0134 22.9036 93.7014 23.5826 88.9362C24.2677 84.1709 24.9527 79.0001 25.6317 73.4298C26.2274 68.5691 26.5431 63.5355 26.6206 58.3647H26.6384C26.6384 58.2454 26.6325 58.1261 26.6325 58.0009C26.6325 57.8816 26.6384 57.7623 26.6384 57.6371H26.6206C26.5431 52.4663 26.2334 47.4386 25.6317 42.572C24.9527 37.0016 24.2677 31.8308 23.5826 27.0655C22.9036 22.3003 22.5581 18.0957 22.5581 14.4457C22.5581 10.7957 23.118 8.33854 24.2379 6.77001C25.3577 5.20147 27.3473 4.41422 30.2005 4.41422C32.1901 4.41422 33.7388 5.30286 35.4186 6.23921C52.8122 15.9069 58.6319 15.9069 74.2505 6.23921C75.8885 5.22533 77.479 4.41422 79.4685 4.41422C82.3278 4.41422 84.3173 5.20147 85.4312 6.77001C86.5511 8.34451 87.111 10.9031 87.111 14.4457C87.111 17.9883 86.7655 22.3003 86.0864 27.0655C85.4014 31.8308 84.7164 37.0016 84.0373 42.572C83.4417 47.4326 83.126 52.4663 83.0485 57.6371H83.0306C83.0306 57.7563 83.0366 57.8756 83.0366 58.0009C83.0366 58.1201 83.0306 58.2394 83.0306 58.3647H83.0485C83.126 63.5355 83.4357 68.5631 84.0373 73.4298C84.7164 79.0001 85.4014 84.1709 86.0864 88.9362C86.7655 93.7014 87.111 97.906 87.111 101.556C87.111 105.206 86.5511 107.663 85.4312 109.232Z" fill="white"/>
<path d="M169.516 36.9538C163.869 36.9538 159.014 38.7013 155.047 42.1544V23.666H147.291V80.3659H155.047V76.3998C159.014 79.853 163.863 81.6004 169.516 81.6004C182.531 81.6004 190.001 73.4655 190.001 59.2771C190.001 45.0887 182.537 36.9538 169.516 36.9538ZM168.795 44.2061C177.724 44.2061 182.245 49.2755 182.245 59.2712C182.245 69.2668 177.718 74.3362 168.795 74.3362C162.874 74.3362 158.502 72.2667 155.053 67.8176V50.7188C158.502 46.2756 162.874 44.2001 168.795 44.2001V44.2061Z" fill="white"/>
<path d="M228.469 38.1875H195.951V45.9526H197.071C206.173 45.9526 221.38 45.4755 225.681 45.3383V53.2884H207.227C198.215 53.2884 192.615 58.4472 192.615 66.7551C192.615 76.7448 198.131 81.5995 209.473 81.5995C217.163 81.5995 222.357 79.2139 225.681 76.721V80.365H233.508V43.3046C233.508 39.9588 231.769 38.1875 228.469 38.1875ZM209.759 74.4129C202.027 74.4129 200.514 71.6814 200.514 66.9698C200.514 62.5505 202.897 60.3975 207.805 60.3975H225.681V68.2461C223.161 71.2818 217.741 74.4129 209.765 74.4129H209.759Z" fill="white"/>
<path d="M273.032 42.1246C269.13 38.6894 264.3 36.9538 258.635 36.9538C252.118 36.9538 246.995 38.9458 243.409 42.8821C239.871 46.7646 238.078 52.2813 238.078 59.2771C238.078 66.2729 239.871 71.7896 243.409 75.6722C246.995 79.6084 252.118 81.6004 258.635 81.6004C264.3 81.6004 269.13 79.8649 273.032 76.4296V80.3659H280.859V23.666H273.032V42.1246ZM259.361 44.2061C265.312 44.2061 269.547 46.2159 273.032 50.7247V67.8235C269.547 72.3264 265.312 74.3362 259.361 74.3362C250.432 74.3362 245.911 69.2668 245.911 59.2712C245.911 49.2755 250.438 44.2061 259.361 44.2061Z" fill="white"/>
<path d="M309.568 36.9538C303.921 36.9538 299.067 38.7013 295.099 42.1544V23.666H287.344V80.3659H295.099V76.3998C299.067 79.853 303.915 81.6004 309.568 81.6004C322.584 81.6004 330.053 73.4655 330.053 59.2771C330.053 45.0887 322.59 36.9538 309.568 36.9538ZM308.842 44.2061C317.771 44.2061 322.292 49.2755 322.292 59.2712C322.292 69.2668 317.765 74.3362 308.842 74.3362C302.921 74.3362 298.548 72.2667 295.099 67.8176V50.7188C298.548 46.2756 302.921 44.2001 308.842 44.2001V44.2061Z" fill="white"/>
<path d="M366.164 67.2343C362.566 71.7073 357.157 74.2659 351.26 74.2659C343.564 74.2659 341.795 72.3991 341.795 64.2821V38.1836H334.039V64.2105C334.039 70.3833 335.207 74.5462 337.72 77.3194C340.365 80.2418 344.439 81.6016 350.533 81.6016C357.86 81.6016 363.036 78.6792 366.164 76.1266V80.367H373.919V38.1896H366.164V67.2403V67.2343Z" fill="white"/>
<path d="M413.513 42.1246C409.611 38.6894 404.78 36.9538 399.115 36.9538C392.599 36.9538 387.476 38.9458 383.89 42.8821C380.352 46.7646 378.559 52.2813 378.559 59.2771C378.559 66.2729 380.352 71.7896 383.89 75.6722C387.476 79.6084 392.599 81.6004 399.115 81.6004C404.78 81.6004 409.611 79.8649 413.513 76.4296V80.3659H421.34V23.666H413.513V42.1246ZM399.842 44.2061C405.793 44.2061 410.028 46.2159 413.513 50.7247V67.8235C410.028 72.3264 405.793 74.3362 399.842 74.3362C390.913 74.3362 386.392 69.2668 386.392 59.2712C386.392 49.2755 390.919 44.2061 399.842 44.2061Z" fill="white"/>
<path d="M460.934 42.1246C457.033 38.6894 452.202 36.9538 446.537 36.9538C440.02 36.9538 434.898 38.9458 431.312 42.8821C427.773 46.7646 425.98 52.2813 425.98 59.2771C425.98 66.2729 427.773 71.7896 431.312 75.6722C434.898 79.6084 440.02 81.6004 446.537 81.6004C452.202 81.6004 457.033 79.8649 460.934 76.4296V80.3659H468.762V23.666H460.934V42.1246ZM447.264 44.2061C453.215 44.2061 457.45 46.2159 460.934 50.7247V67.8235C457.45 72.3264 453.215 74.3362 447.264 74.3362C438.335 74.3362 433.814 69.2668 433.814 59.2712C433.814 49.2755 438.341 44.2061 447.264 44.2061Z" fill="white"/>
<path d="M498.89 36.9538C491.563 36.9538 486.387 39.8762 483.26 42.4288V23.666H475.504V80.3659H483.26V51.3152C486.857 46.8422 492.266 44.2836 498.163 44.2836C506.336 44.2836 508.57 46.6453 508.57 55.2812V80.3659H516.397V55.2812C516.397 48.8401 515.021 44.2776 512.185 41.3255C509.362 38.3792 505.008 36.9479 498.884 36.9479L498.89 36.9538Z" fill="white"/>
<path d="M556.103 38.1875H523.586V45.9526H524.706C533.807 45.9526 549.015 45.4755 553.316 45.3383V53.2884H534.862C525.849 53.2884 520.25 58.4472 520.25 66.7551C520.25 76.7448 525.766 81.5995 537.107 81.5995C544.798 81.5995 549.992 79.2139 553.316 76.721V80.365H561.143V43.3046C561.143 39.9588 559.403 38.1875 556.103 38.1875ZM537.393 74.4129C529.662 74.4129 528.149 71.6814 528.149 66.9698C528.149 62.5505 530.531 60.3975 535.44 60.3975H553.316V68.2461C550.796 71.2818 545.375 74.4129 537.399 74.4129H537.393Z" fill="white"/>
<path d="M587.163 55.3363C577.453 53.8512 574.338 52.3602 574.338 49.1874C574.338 47.8872 574.338 43.9211 585.4 43.9211C589.004 43.9211 591.982 44.7144 594.007 46.2113C595.895 47.6129 596.896 49.6227 596.896 52.0143V53.1355H604.723V52.0143C604.723 43.289 596.598 36.9492 585.4 36.9492C574.201 36.9492 566.511 41.6369 566.511 49.1814C566.511 58.5568 576.542 60.9305 585.942 62.4155C594.585 63.835 598.201 65.0815 598.201 69.1489C598.201 73.9201 590.91 74.6298 586.561 74.6298C582.535 74.6298 579.395 73.9678 577.215 72.6557C574.743 71.1707 573.546 68.8865 573.546 65.66V64.5387H565.719V65.66C565.719 77.4091 576.488 81.5958 586.567 81.5958C591.732 81.5958 596.432 80.5879 599.809 78.7629C603.883 76.5622 606.034 73.2343 606.034 69.1429C606.034 59.1473 596.3 56.7676 587.169 55.3243L587.163 55.3363Z" fill="white"/>
</svg>
