<svg width="630" height="116" viewBox="0 0 630 116" fill="none" xmlns="http://www.w3.org/2000/svg">
<g clip-path="url(#clip0_0_293)">
<path d="M107.441 57.9999C107.483 51.5528 107.84 45.1653 108.543 38.8494C109.288 32.1101 109.663 26.8618 109.663 23.1104C109.663 17.3313 108.418 12.745 105.934 9.35145C103.444 5.95793 99.906 3.54847 95.3074 2.12903C90.7089 0.709597 85.181 -0.000120431 78.718 -0.000120431C78.5691 -0.000120431 71.7188 -0.000120418 66.2268 1.9024C62.3549 3.2443 58.5128 3.73931 54.8256 3.79299C51.1384 3.73931 47.344 3.10117 43.4244 1.9024C36.8721 -0.101508 31.0881 -0.000120431 30.9392 -0.000120431C24.4821 -0.000120431 18.9543 0.709597 14.3557 2.12903C9.7571 3.54847 6.21881 5.95793 3.7289 9.35145C1.24495 12.7509 0 17.3313 0 23.1104C0 26.8618 0.375273 32.1101 1.11986 38.8494C1.8168 45.1653 2.1742 51.5528 2.22185 57.9999C2.18016 64.447 1.82275 70.8344 1.11986 77.1503C0.375273 83.8896 0 89.138 0 92.8893C0 98.6685 1.24495 103.255 3.7289 106.648C6.21285 110.042 9.7571 112.451 14.3557 113.871C18.9543 115.29 24.4881 116 30.9451 116C31.0941 116 36.878 116.101 43.4364 114.097C47.3559 112.905 51.1503 112.26 54.8375 112.207C58.5247 112.26 62.3668 112.755 66.2387 114.097C71.7308 116 78.581 116 78.7299 116C85.187 116 90.7208 115.29 95.3194 113.871C99.9179 112.451 103.456 110.042 105.946 106.648C108.43 103.249 109.675 98.6685 109.675 92.8893C109.675 89.138 109.3 83.8896 108.555 77.1503C107.858 70.8344 107.501 64.447 107.453 57.9999H107.441ZM85.4312 109.231C84.3113 110.799 82.3218 111.587 79.4685 111.587C77.479 111.587 75.8826 110.775 74.2505 109.762C58.6379 100.094 52.8122 100.094 35.4186 109.762C33.7388 110.698 32.1901 111.587 30.2005 111.587C27.3413 111.587 25.3518 110.799 24.2379 109.231C23.118 107.656 22.5581 105.098 22.5581 101.555C22.5581 98.0124 22.9036 93.7004 23.5826 88.9352C24.2677 84.17 24.9527 78.9992 25.6317 73.4288C26.2274 68.5681 26.5431 63.5345 26.6206 58.3637H26.6384C26.6384 58.2444 26.6325 58.1251 26.6325 57.9999C26.6325 57.8806 26.6384 57.7613 26.6384 57.6361H26.6206C26.5431 52.4653 26.2334 47.4376 25.6317 42.571C24.9527 37.0006 24.2677 31.8298 23.5826 27.0646C22.9036 22.2993 22.5581 18.0947 22.5581 14.4447C22.5581 10.7947 23.118 8.33757 24.2379 6.76903C25.3577 5.2005 27.3473 4.41325 30.2005 4.41325C32.1901 4.41325 33.7388 5.30188 35.4186 6.23823C52.8122 15.9059 58.6319 15.9059 74.2505 6.23823C75.8885 5.22435 77.479 4.41325 79.4685 4.41325C82.3278 4.41325 84.3173 5.2005 85.4312 6.76903C86.5511 8.34353 87.111 10.9021 87.111 14.4447C87.111 17.9873 86.7655 22.2993 86.0864 27.0646C85.4014 31.8298 84.7164 37.0006 84.0373 42.571C83.4417 47.4317 83.126 52.4653 83.0485 57.6361H83.0306C83.0306 57.7554 83.0366 57.8746 83.0366 57.9999C83.0366 58.1192 83.0306 58.2384 83.0306 58.3637H83.0485C83.126 63.5345 83.4357 68.5621 84.0373 73.4288C84.7164 78.9992 85.4014 84.17 86.0864 88.9352C86.7655 93.7004 87.111 97.9051 87.111 101.555C87.111 105.205 86.5511 107.662 85.4312 109.231Z" fill="white"/>
<path d="M169.516 36.9529C163.87 36.9529 159.015 38.7003 155.048 42.1535V23.665H147.292V80.3649H155.048V76.3988C159.015 79.852 163.864 81.5994 169.516 81.5994C182.532 81.5994 190.002 73.4645 190.002 59.2761C190.002 45.0878 182.538 36.9529 169.516 36.9529ZM168.796 44.2051C177.725 44.2051 182.246 49.2745 182.246 59.2702C182.246 69.2659 177.719 74.3353 168.796 74.3353C162.875 74.3353 158.503 72.2658 155.054 67.8166V50.7178C158.503 46.2746 162.875 44.1991 168.796 44.1991V44.2051Z" fill="white"/>
<path d="M228.47 38.1875H195.952V45.9526H197.072C206.174 45.9526 221.381 45.4755 225.682 45.3383V53.2884H207.228C198.216 53.2884 192.616 58.4472 192.616 66.7551C192.616 76.7448 198.132 81.5995 209.474 81.5995C217.164 81.5995 222.358 79.2139 225.682 76.721V80.365H233.509V43.3046C233.509 39.9588 231.77 38.1875 228.47 38.1875ZM209.76 74.4129C202.028 74.4129 200.515 71.6814 200.515 66.9698C200.515 62.5505 202.898 60.3975 207.806 60.3975H225.682V68.2461C223.162 71.2818 217.742 74.4129 209.766 74.4129H209.76Z" fill="white"/>
<path d="M273.032 42.1236C269.13 38.6884 264.3 36.9529 258.635 36.9529C252.118 36.9529 246.995 38.9448 243.409 42.8811C239.871 46.7637 238.078 52.2804 238.078 59.2761C238.078 66.2719 239.871 71.7886 243.409 75.6712C246.995 79.6075 252.118 81.5994 258.635 81.5994C264.3 81.5994 269.13 79.8639 273.032 76.4286V80.3649H280.859V23.665H273.032V42.1236ZM259.361 44.2051C265.312 44.2051 269.547 46.215 273.032 50.7238V67.8226C269.547 72.3254 265.312 74.3353 259.361 74.3353C250.432 74.3353 245.911 69.2659 245.911 59.2702C245.911 49.2745 250.438 44.2051 259.361 44.2051Z" fill="white"/>
<path d="M309.569 36.9529C303.922 36.9529 299.068 38.7003 295.1 42.1535V23.665H287.345V80.3649H295.1V76.3988C299.068 79.852 303.916 81.5994 309.569 81.5994C322.585 81.5994 330.054 73.4645 330.054 59.2761C330.054 45.0878 322.591 36.9529 309.569 36.9529ZM308.842 44.2051C317.772 44.2051 322.293 49.2745 322.293 59.2702C322.293 69.2659 317.766 74.3353 308.842 74.3353C302.922 74.3353 298.549 72.2658 295.1 67.8166V50.7178C298.549 46.2746 302.922 44.1991 308.842 44.1991V44.2051Z" fill="white"/>
<path d="M366.164 67.2323C362.566 71.7053 357.157 74.2639 351.26 74.2639C343.564 74.2639 341.795 72.3972 341.795 64.2802V38.1816H334.039V64.2086C334.039 70.3813 335.207 74.5442 337.72 77.3175C340.365 80.2398 344.439 81.5996 350.533 81.5996C357.86 81.5996 363.036 78.6773 366.164 76.1247V80.3651H373.919V38.1876H366.164V67.2383V67.2323Z" fill="white"/>
<path d="M413.514 42.1236C409.612 38.6884 404.781 36.9529 399.116 36.9529C392.6 36.9529 387.477 38.9448 383.891 42.8811C380.353 46.7637 378.56 52.2804 378.56 59.2761C378.56 66.2719 380.353 71.7886 383.891 75.6712C387.477 79.6075 392.6 81.5994 399.116 81.5994C404.781 81.5994 409.612 79.8639 413.514 76.4286V80.3649H421.341V23.665H413.514V42.1236ZM399.843 44.2051C405.794 44.2051 410.029 46.215 413.514 50.7238V67.8226C410.029 72.3254 405.794 74.3353 399.843 74.3353C390.914 74.3353 386.393 69.2659 386.393 59.2702C386.393 49.2745 390.92 44.2051 399.843 44.2051Z" fill="white"/>
<path d="M460.935 42.1236C457.034 38.6884 452.203 36.9529 446.538 36.9529C440.021 36.9529 434.899 38.9448 431.313 42.8811C427.774 46.7637 425.981 52.2804 425.981 59.2761C425.981 66.2719 427.774 71.7886 431.313 75.6712C434.899 79.6075 440.021 81.5994 446.538 81.5994C452.203 81.5994 457.034 79.8639 460.935 76.4286V80.3649H468.763V23.665H460.935V42.1236ZM447.265 44.2051C453.216 44.2051 457.451 46.215 460.935 50.7238V67.8226C457.451 72.3254 453.216 74.3353 447.265 74.3353C438.336 74.3353 433.815 69.2659 433.815 59.2702C433.815 49.2745 438.342 44.2051 447.265 44.2051Z" fill="white"/>
<path d="M498.891 36.9529C491.564 36.9529 486.388 39.8752 483.261 42.4278V23.665H475.505V80.3649H483.261V51.3142C486.858 46.8412 492.267 44.2826 498.164 44.2826C506.337 44.2826 508.571 46.6444 508.571 55.2803V80.3649H516.398V55.2803C516.398 48.8391 515.022 44.2767 512.186 41.3245C509.363 38.3783 505.008 36.9469 498.885 36.9469L498.891 36.9529Z" fill="white"/>
<path d="M556.105 38.1875H523.588V45.9526H524.708C533.809 45.9526 549.017 45.4755 553.318 45.3383V53.2884H534.864C525.851 53.2884 520.252 58.4472 520.252 66.7551C520.252 76.7448 525.768 81.5995 537.109 81.5995C544.8 81.5995 549.994 79.2139 553.318 76.721V80.365H561.145V43.3046C561.145 39.9588 559.405 38.1875 556.105 38.1875ZM537.395 74.4129C529.664 74.4129 528.151 71.6814 528.151 66.9698C528.151 62.5505 530.533 60.3975 535.442 60.3975H553.318V68.2461C550.798 71.2818 545.377 74.4129 537.401 74.4129H537.395Z" fill="white"/>
<path d="M587.164 55.3343C577.454 53.8493 574.339 52.3583 574.339 49.1854C574.339 47.8853 574.339 43.9192 585.401 43.9192C589.005 43.9192 591.983 44.7124 594.008 46.2094C595.896 47.6109 596.897 49.6208 596.897 52.0124V53.1336H604.724V52.0124C604.724 43.287 596.599 36.9473 585.401 36.9473C574.202 36.9473 566.512 41.635 566.512 49.1795C566.512 58.5549 576.543 60.9286 585.943 62.4136C594.586 63.833 598.202 65.0795 598.202 69.147C598.202 73.9182 590.911 74.6279 586.562 74.6279C582.535 74.6279 579.396 73.9659 577.216 72.6538C574.744 71.1688 573.547 68.8845 573.547 65.658V64.5368H565.72V65.658C565.72 77.4071 576.489 81.5938 586.568 81.5938C591.733 81.5938 596.432 80.5859 599.81 78.7609C603.884 76.5602 606.035 73.2323 606.035 69.141C606.035 59.1453 596.301 56.7657 587.17 55.3224L587.164 55.3343Z" fill="white"/>
</g>
<defs>
<clipPath id="clip0_0_293">
<rect width="630" height="116" fill="white"/>
</clipPath>
</defs>
</svg>
